<svg width="149" height="23" viewBox="0 0 149 23" fill="none" xmlns="http://www.w3.org/2000/svg">
<path d="M0 0.319444H9.4184V3.51389H3.56022V9.74306H8.15614V12.9375H3.56022V22.6806H0V0.319444Z" fill="url(#paint0_linear_1_263)"/>
<path d="M11.1257 0.319444H16.4013C18.2353 0.319444 19.5731 0.74537 20.4146 1.59722C21.2561 2.42778 21.6769 3.7162 21.6769 5.4625V6.83611C21.6769 9.15741 20.9001 10.6269 19.3466 11.2444V11.3083C20.2096 11.5639 20.8138 12.0856 21.159 12.8736C21.5258 13.6616 21.7093 14.7157 21.7093 16.0361V19.9653C21.7093 20.6042 21.7308 21.1259 21.774 21.5306C21.8171 21.9139 21.925 22.2972 22.0976 22.6806H18.4727C18.3432 22.3185 18.2569 21.9778 18.2138 21.6583C18.1706 21.3389 18.149 20.7639 18.149 19.9333V15.8444C18.149 14.8222 17.9764 14.1088 17.6312 13.7042C17.3075 13.2995 16.7357 13.0972 15.9158 13.0972H14.6859V22.6806H11.1257V0.319444ZM15.9805 9.90278C16.6926 9.90278 17.2212 9.72176 17.5664 9.35972C17.9333 8.99769 18.1167 8.39074 18.1167 7.53889V5.81389C18.1167 5.00463 17.9656 4.41898 17.6635 4.05695C17.383 3.69491 16.9299 3.51389 16.3042 3.51389H14.6859V9.90278H15.9805Z" fill="url(#paint1_linear_1_263)"/>
<path d="M29.3255 23C27.5778 23 26.24 22.5102 25.3122 21.5306C24.3844 20.5509 23.9205 19.1667 23.9205 17.3778V5.62222C23.9205 3.83333 24.3844 2.44907 25.3122 1.46944C26.24 0.489815 27.5778 0 29.3255 0C31.0733 0 32.4111 0.489815 33.3389 1.46944C34.2667 2.44907 34.7306 3.83333 34.7306 5.62222V17.3778C34.7306 19.1667 34.2667 20.5509 33.3389 21.5306C32.4111 22.5102 31.0733 23 29.3255 23ZM29.3255 19.8056C30.5554 19.8056 31.1704 19.0708 31.1704 17.6014V5.39861C31.1704 3.92917 30.5554 3.19445 29.3255 3.19445C28.0956 3.19445 27.4807 3.92917 27.4807 5.39861V17.6014C27.4807 19.0708 28.0956 19.8056 29.3255 19.8056Z" fill="url(#paint2_linear_1_263)"/>
<path d="M41.7666 23C40.0404 23 38.735 22.5208 37.8503 21.5625C36.9657 20.5829 36.5234 19.188 36.5234 17.3778V16.1H39.8894V17.6333C39.8894 19.0815 40.5043 19.8056 41.7342 19.8056C42.3384 19.8056 42.7915 19.6352 43.0936 19.2944C43.4172 18.9324 43.5791 18.3574 43.5791 17.5694C43.5791 16.6324 43.3633 15.8125 42.9317 15.1097C42.5002 14.3856 41.7019 13.5231 40.5367 12.5222C39.0695 11.2444 38.0445 10.0944 37.462 9.07222C36.8794 8.0287 36.5881 6.85741 36.5881 5.55833C36.5881 3.79074 37.0412 2.42778 37.9474 1.46944C38.8537 0.489815 40.1699 0 41.896 0C43.6006 0 44.8845 0.489815 45.7476 1.46944C46.6322 2.42778 47.0746 3.81204 47.0746 5.62222V6.54861H43.7085V5.39861C43.7085 4.63194 43.5575 4.07824 43.2554 3.7375C42.9533 3.37546 42.511 3.19445 41.9284 3.19445C40.7417 3.19445 40.1483 3.90787 40.1483 5.33472C40.1483 6.14398 40.3641 6.9 40.7956 7.60278C41.2487 8.30556 42.0579 9.15741 43.223 10.1583C44.7119 11.4361 45.7368 12.5968 46.2978 13.6403C46.8588 14.6838 47.1393 15.9083 47.1393 17.3139C47.1393 19.1454 46.6754 20.5509 45.7476 21.5306C44.8413 22.5102 43.5143 23 41.7666 23Z" fill="url(#paint3_linear_1_263)"/>
<path d="M51.964 3.51389H48.242V0.319444H59.2463V3.51389H55.5243V22.6806H51.964V3.51389Z" fill="url(#paint4_linear_1_263)"/>
<path d="M65.8603 23C64.1557 23 62.8503 22.5208 61.944 21.5625C61.0594 20.6042 60.617 19.2519 60.617 17.5056V5.49444C60.617 3.74815 61.0594 2.39583 61.944 1.4375C62.8503 0.479167 64.1557 0 65.8603 0C67.5649 0 68.8595 0.479167 69.7441 1.4375C70.6504 2.39583 71.1035 3.74815 71.1035 5.49444V7.85833H67.7375V5.27083C67.7375 3.88657 67.1441 3.19445 65.9574 3.19445C64.7706 3.19445 64.1773 3.88657 64.1773 5.27083V17.7611C64.1773 19.1241 64.7706 19.8056 65.9574 19.8056C67.1441 19.8056 67.7375 19.1241 67.7375 17.7611V14.3431H71.1035V17.5056C71.1035 19.2519 70.6504 20.6042 69.7441 21.5625C68.8595 22.5208 67.5649 23 65.8603 23Z" fill="white"/>
<path d="M73.2336 0.319444H76.7938V9.42361H80.6129V0.319444H84.1731V22.6806H80.6129V12.6181H76.7938V22.6806H73.2336V0.319444Z" fill="white"/>
<path d="M89.5757 0.319444H94.3982L98.0878 22.6806H94.5276L93.8803 18.2403V18.3042H89.8346L89.1873 22.6806H85.886L89.5757 0.319444ZM93.4596 15.2694L91.8736 4.21667H91.8089L90.2554 15.2694H93.4596Z" fill="white"/>
<path d="M99.8151 0.319444H104.282L107.745 13.7042H107.809V0.319444H110.981V22.6806H107.324L103.052 6.35694H102.987V22.6806H99.8151V0.319444Z" fill="white"/>
<path d="M118.676 23C116.95 23 115.634 22.5208 114.728 21.5625C113.822 20.5829 113.368 19.188 113.368 17.3778V5.62222C113.368 3.81204 113.822 2.42778 114.728 1.46944C115.634 0.489815 116.95 0 118.676 0C120.403 0 121.719 0.489815 122.625 1.46944C123.531 2.42778 123.984 3.81204 123.984 5.62222V7.53889H120.618V5.39861C120.618 3.92917 120.003 3.19445 118.774 3.19445C117.544 3.19445 116.929 3.92917 116.929 5.39861V17.6333C116.929 19.0815 117.544 19.8056 118.774 19.8056C120.003 19.8056 120.618 19.0815 120.618 17.6333V13.2569H118.838V10.0625H123.984V17.3778C123.984 19.188 123.531 20.5829 122.625 21.5625C121.719 22.5208 120.403 23 118.676 23Z" fill="white"/>
<path d="M126.27 0.319444H135.98V3.51389H129.83V9.42361H134.718V12.6181H129.83V19.4861H135.98V22.6806H126.27V0.319444Z" fill="white"/>
<path d="M138.028 0.319444H143.304C145.138 0.319444 146.475 0.74537 147.317 1.59722C148.158 2.42778 148.579 3.7162 148.579 5.4625V6.83611C148.579 9.15741 147.802 10.6269 146.249 11.2444V11.3083C147.112 11.5639 147.716 12.0856 148.061 12.8736C148.428 13.6616 148.612 14.7157 148.612 16.0361V19.9653C148.612 20.6042 148.633 21.1259 148.676 21.5306C148.719 21.9139 148.827 22.2972 149 22.6806H145.375C145.246 22.3185 145.159 21.9778 145.116 21.6583C145.073 21.3389 145.051 20.7639 145.051 19.9333V15.8444C145.051 14.8222 144.879 14.1088 144.534 13.7042C144.21 13.2995 143.638 13.0972 142.818 13.0972H141.588V22.6806H138.028V0.319444ZM142.883 9.90278C143.595 9.90278 144.124 9.72176 144.469 9.35972C144.836 8.99769 145.019 8.39074 145.019 7.53889V5.81389C145.019 5.00463 144.868 4.41898 144.566 4.05695C144.285 3.69491 143.832 3.51389 143.207 3.51389H141.588V9.90278H142.883Z" fill="white"/>
<defs>
<linearGradient id="paint0_linear_1_263" x1="3.38636" y1="-4.18182" x2="69.8789" y2="33.7563" gradientUnits="userSpaceOnUse">
<stop stop-color="#22D3EE"/>
<stop offset="1" stop-color="#6366F1"/>
</linearGradient>
<linearGradient id="paint1_linear_1_263" x1="3.38636" y1="-4.18182" x2="69.8789" y2="33.7563" gradientUnits="userSpaceOnUse">
<stop stop-color="#22D3EE"/>
<stop offset="1" stop-color="#6366F1"/>
</linearGradient>
<linearGradient id="paint2_linear_1_263" x1="3.38636" y1="-4.18182" x2="69.8789" y2="33.7563" gradientUnits="userSpaceOnUse">
<stop stop-color="#22D3EE"/>
<stop offset="1" stop-color="#6366F1"/>
</linearGradient>
<linearGradient id="paint3_linear_1_263" x1="3.38636" y1="-4.18182" x2="69.8789" y2="33.7563" gradientUnits="userSpaceOnUse">
<stop stop-color="#22D3EE"/>
<stop offset="1" stop-color="#6366F1"/>
</linearGradient>
<linearGradient id="paint4_linear_1_263" x1="3.38636" y1="-4.18182" x2="69.8789" y2="33.7563" gradientUnits="userSpaceOnUse">
<stop stop-color="#22D3EE"/>
<stop offset="1" stop-color="#6366F1"/>
</linearGradient>
</defs>
</svg>
