<svg width="64" height="9" viewBox="0 0 64 9" fill="none" xmlns="http://www.w3.org/2000/svg">
<path d="M24.4111 0.0518575C25.3793 -0.0961635 26.3956 0.0743049 27.2564 0.542634C28.091 0.992156 28.7769 1.70982 29.1847 2.56336C29.6371 3.49941 29.7426 4.5938 29.4871 5.60083C29.2445 6.5757 28.6574 7.46019 27.8563 8.07108C26.4864 9.14484 24.4788 9.30317 22.9535 8.46418C22.0756 7.99524 21.3635 7.22906 20.9617 6.32152C20.4557 5.19438 20.449 3.85794 20.9422 2.72473C21.5366 1.31974 22.8937 0.269642 24.4111 0.0518575ZM24.6556 1.56847C23.6838 1.71467 22.8291 2.40139 22.4481 3.29861C22.0542 4.19159 22.1317 5.27445 22.6566 6.09888C23.087 6.79348 23.821 7.29943 24.6331 7.42925C25.4585 7.57363 26.3376 7.31945 26.9668 6.77104C27.6844 6.16015 28.0727 5.1968 27.9916 4.26136C27.9307 3.42662 27.5003 2.62585 26.829 2.1193C26.2206 1.65097 25.4159 1.4441 24.6556 1.56847Z" fill="white"/>
<path d="M0.481689 0.258816C0.858454 0.1569 1.25656 0.2394 1.64186 0.210281C1.77903 0.229087 1.98753 0.158717 2.06496 0.312804C2.09178 0.513603 2.07471 0.716829 2.07715 0.919448C2.07715 2.68539 2.07654 4.45193 2.07715 6.21787C3.63298 4.28329 5.18698 2.34749 6.74099 0.411687C6.82207 0.310985 6.93242 0.221809 7.06837 0.219382C7.51463 0.19997 7.96151 0.221808 8.40838 0.210889C8.57543 0.213922 8.76076 0.182379 8.90342 0.292788C8.38339 0.974655 7.83226 1.63286 7.29943 2.30502C5.70214 4.29481 4.10424 6.284 2.50634 8.27318C2.38746 8.41756 2.28321 8.5765 2.14116 8.70147C2.00155 8.81613 1.80707 8.78034 1.64003 8.78944C1.25412 8.77609 0.86577 8.81006 0.481689 8.76274V0.258816Z" fill="white"/>
<path d="M11.2847 0.567013C11.4505 0.343162 11.7224 0.207276 12.0023 0.213342C12.3473 0.213949 12.693 0.207275 13.0381 0.216375C13.1569 0.203635 13.2234 0.326175 13.2082 0.430518C13.2082 3.14221 13.2082 5.85452 13.2082 8.56622C13.224 8.67056 13.16 8.79795 13.0381 8.78461C12.6107 8.78946 12.1833 8.78946 11.756 8.784C11.5993 8.78825 11.4755 8.67844 11.3877 8.56136C10.6488 7.63805 9.90628 6.71777 9.16738 5.79446C8.41507 6.72687 7.66702 7.66232 6.91654 8.59655C6.83607 8.69907 6.71962 8.78521 6.58306 8.78339C6.09351 8.79431 5.60335 8.78097 5.11319 8.78885C4.99309 8.78097 4.8425 8.81919 4.76813 8.69482C6.92752 5.97585 9.11617 3.27871 11.2847 0.567013ZM10.0672 4.50049C10.5745 5.12837 11.0744 5.7617 11.5853 6.38594C11.5889 5.12715 11.5877 3.86897 11.5865 2.61019C11.0786 3.23928 10.5726 3.86958 10.0672 4.50049Z" fill="white"/>
<path d="M15.1439 0.42858C15.1323 0.33273 15.1848 0.215039 15.2963 0.217465C15.7261 0.207152 16.1578 0.211401 16.5882 0.215647C16.7113 0.202301 16.7881 0.32363 16.7686 0.435859C16.7711 2.70835 16.7699 4.98083 16.7692 7.25393C17.9642 7.25817 19.1591 7.25089 20.3534 7.25696C20.4558 7.23512 20.5198 7.36433 20.4387 7.43288C20.1278 7.83145 19.8065 8.22274 19.4901 8.61827C19.3944 8.74687 19.2322 8.79904 19.0762 8.78752C17.8166 8.78327 16.5565 8.79237 15.2969 8.78327C15.1811 8.78813 15.1329 8.66316 15.1439 8.5667C15.1439 5.8544 15.1433 3.14149 15.1439 0.42858Z" fill="white"/>
<path d="M31.0661 0.431623C31.0381 0.306655 31.1393 0.193211 31.2667 0.213837C33.4444 0.21141 35.6214 0.212627 37.7985 0.213233C37.8991 0.19928 38.018 0.261764 38.0082 0.375813C38.0149 0.963044 38.0094 1.55088 38.0107 2.13811C38.0235 2.27825 37.9491 2.40139 37.8625 2.50452C37.234 3.27799 36.6158 4.05935 35.9854 4.83161C35.9543 4.8862 35.8507 4.9584 35.9293 5.02149C36.8816 6.21293 37.8418 7.39892 38.7928 8.59098C38.8617 8.648 38.8629 8.78389 38.7502 8.78086C38.1856 8.79299 37.6205 8.78692 37.0559 8.78389C36.8346 8.78692 36.7097 8.58249 36.5871 8.43204C35.7129 7.34069 34.838 6.24994 33.9607 5.16162C33.8955 5.08154 33.7955 4.96568 33.8864 4.86679C34.7124 3.82337 35.5538 2.79086 36.3841 1.74986C35.1544 1.7444 33.9242 1.76017 32.6951 1.74197C32.6731 4.03508 32.6963 6.32941 32.6835 8.62253C32.6975 8.72929 32.5866 8.80027 32.4903 8.78571C32.0635 8.78571 31.6367 8.79238 31.21 8.78268C31.0966 8.78389 31.0509 8.6571 31.0655 8.56307C31.0661 5.85259 31.0655 3.14211 31.0661 0.431623Z" fill="white"/>
<path d="M40.1797 0.435916C40.1602 0.32672 40.2316 0.201751 40.3547 0.215704C40.7613 0.208424 41.1692 0.212669 41.5765 0.213882C41.7289 0.204783 41.8764 0.275763 41.966 0.398911C43.998 2.92861 46.0294 5.45892 48.0613 7.98863C48.2363 8.22218 48.446 8.43208 48.5978 8.68263C48.5832 8.70629 48.5539 8.7536 48.5393 8.77726C48.0467 8.80214 47.5523 8.77726 47.0591 8.78818C46.8646 8.79122 46.6292 8.8076 46.5006 8.63046C45.7373 7.68834 44.9814 6.74015 44.2217 5.795C43.4694 6.72681 42.7208 7.66225 41.9709 8.59588C41.8904 8.69961 41.7728 8.78454 41.6362 8.78394C41.2107 8.79 40.7851 8.78818 40.3602 8.78515C40.2334 8.80274 40.1596 8.67535 40.1797 8.56433C40.1797 5.85506 40.1803 3.14519 40.1797 0.435916ZM41.802 2.61437C41.8002 3.87255 41.8002 5.13012 41.802 6.3883C42.3093 5.75982 42.814 5.12952 43.3194 4.49982C42.8128 3.87194 42.3117 3.23921 41.802 2.61437Z" fill="white"/>
<path d="M47.3444 0.438383C47.3316 0.344353 47.3737 0.221812 47.4853 0.219385C47.8907 0.203006 48.2967 0.21696 48.7021 0.212713C48.8594 0.2024 49.024 0.253963 49.1198 0.384998C50.6835 2.32747 52.2412 4.2748 53.8061 6.21605C53.8061 4.28875 53.8055 2.36144 53.8061 0.433528C53.7799 0.3122 53.875 0.194511 54.0025 0.213924C54.4317 0.21453 54.8608 0.204219 55.2894 0.219385C55.3992 0.223632 55.4388 0.34496 55.4266 0.438383C55.4266 3.14644 55.4266 5.85449 55.4266 8.56255C55.4394 8.65476 55.3986 8.77973 55.2876 8.78155C54.8615 8.79368 54.4341 8.78519 54.0079 8.7858C53.8671 8.79126 53.7336 8.72392 53.6507 8.6129C52.0888 6.67225 50.5323 4.72675 48.9692 2.78731C48.9673 3.92476 48.9722 5.06283 48.9673 6.20028C48.9972 6.30159 48.8521 6.38834 48.7905 6.29613C48.3418 5.7544 47.9084 5.19993 47.4658 4.65334C47.367 4.54597 47.3353 4.40158 47.3426 4.26024C47.3451 2.98628 47.342 1.71233 47.3444 0.438383Z" fill="white"/>
<path d="M56.5478 0.375294C56.535 0.264885 56.6533 0.201186 56.7502 0.213925C58.5402 0.210892 60.3301 0.213928 62.12 0.212714C62.2749 0.203008 62.4371 0.253359 62.5316 0.383181C62.8486 0.776286 63.1687 1.16818 63.4802 1.56614C63.5625 1.63287 63.5009 1.76511 63.3973 1.74691C62.4615 1.75419 61.525 1.74691 60.5886 1.74995C60.5843 4.02122 60.5941 6.29249 60.5935 8.56377C60.6154 8.67236 60.5404 8.79733 60.4185 8.78458C59.9911 8.78823 59.5632 8.79004 59.1364 8.78398C59.0456 8.79186 58.9663 8.71179 58.9755 8.62261C58.9602 6.33193 58.9749 4.04063 58.9627 1.74995C58.2244 1.74813 57.4855 1.75238 56.7478 1.74874C56.6496 1.76026 56.5326 1.69292 56.5478 1.58251C56.5417 1.18031 56.5411 0.777499 56.5478 0.375294Z" fill="white"/>
</svg>
